<svg width="130" height="31" viewBox="0 0 130 31" fill="none" xmlns="http://www.w3.org/2000/svg">
<path d="M0 8.87591C3.47612 8.87591 6.24351 11.6771 6.24351 15.1194C6.24351 18.5618 3.44237 21.3629 0 21.3629V30.2388H73.4034V21.3292C70.1298 21.1267 67.5649 18.4268 67.5649 15.1194C67.5649 11.812 70.1636 9.11215 73.4034 8.90966V0H0V8.87591ZM48.3956 3.91485H61.2539V9.28089H57.7778V26.2902H51.7368V9.28089H48.3956V3.91485ZM28.7201 3.91485H34.7612L34.5924 13.4995L38.1698 3.91485H44.5483L39.7222 14.7144L45.1558 26.2902H38.6423L34.6262 15.9631L34.7949 26.2902H28.7539V3.91485H28.7201ZM12.5208 3.91485H25.379V9.28089H21.9029V26.2902H15.8619V9.28089H12.5208V3.91485Z" fill="white"/>
<path d="M130 8.87591V0H74.2134V8.90966C77.487 9.11215 80.0519 11.812 80.0519 15.1194C80.0519 18.4268 77.4533 21.1267 74.2134 21.3292V30.2388H130V21.3629C126.558 21.3629 123.756 18.5618 123.756 15.1194C123.756 11.6771 126.558 8.87591 130 8.87591ZM103.035 14.3094C103.035 18.6293 102.394 21.7342 101.111 23.6241C99.6937 25.6828 97.635 26.729 94.9013 26.729C92.2014 26.729 90.0753 25.7165 88.5566 23.6916C87.0379 21.6329 86.2617 18.8318 86.2617 15.2544C86.2617 11.6433 87.0379 8.77466 88.5566 6.68224C90.0753 4.58982 92.2014 3.54361 94.8676 3.54361C98.4112 3.54361 100.976 5.39979 102.562 9.0784L96.7238 11.2046C96.6225 10.4958 96.42 9.95587 96.1163 9.51713C95.8126 9.11215 95.4076 8.90966 94.9351 8.90966C93.2814 8.90966 92.4377 11.2046 92.4377 15.7606C92.4377 17.7181 92.6064 19.1018 92.9777 19.9792C93.3489 20.8567 93.9226 21.2954 94.7326 21.2954C95.0363 21.2954 95.3401 21.2279 95.6101 21.0592C95.8801 20.8904 96.0825 20.688 96.285 20.418C96.4538 20.148 96.5888 19.8105 96.69 19.4055C96.7913 19.0005 96.8588 18.5618 96.8588 18.0556H94.6313V13.3307H103.069V14.3094H103.035ZM117.513 9.17965H112.316V12.4533H116.973V17.5156H112.316V20.9242H117.513V26.2902H106.275V3.91485H117.513V9.17965Z" fill="white"/>
</svg>
