<svg width="68" height="12" viewBox="0 0 68 12" fill="none" xmlns="http://www.w3.org/2000/svg">
<path d="M10.3098 11.5322V1.95728L5.91495 11.5322H5.23521L0.852071 2.10963V11.5322H0.172333V0.257935H1.52009L5.96182 9.83286L10.3098 0.257935H11.6693V11.5322H10.3098Z" fill="#292728"/>
<path d="M18.0446 11.5322V7.12563L13.1692 0.257935H14.7748L19.0056 6.04742L23.1895 0.257935H23.9982L19.4041 6.64513V11.5205H18.0446V11.5322Z" fill="#292728"/>
<path d="M26.3658 11.462C25.8501 11.2862 25.4048 11.0636 25.0532 10.8057C24.6899 10.5596 24.4203 10.3135 24.1977 10.0557L24.6899 9.59861C25.5103 10.5479 26.6939 11.0284 28.2644 11.0518C28.991 11.0518 29.6004 10.9581 30.0926 10.7471C30.5848 10.5362 30.9364 10.2549 31.1825 9.92676C31.4287 9.57517 31.5459 9.21186 31.5459 8.80168C31.5459 8.34461 31.3818 7.96958 31.0888 7.66487C30.7841 7.37188 30.3856 7.11405 29.8934 6.91482C29.4012 6.69214 28.8738 6.50463 28.3112 6.31712C27.1041 5.91865 26.2251 5.5319 25.6626 5.15688C24.8422 4.60605 24.4203 3.87944 24.4203 2.97703C24.4203 2.10977 24.8305 1.39488 25.6274 0.844056C26.4361 0.293234 27.4674 0.0119629 28.7214 0.0119629C29.3074 0.0119629 29.8465 0.10572 30.3387 0.293234C30.831 0.469028 31.2646 0.691701 31.6162 0.937813C31.9795 1.1722 32.2373 1.41832 32.4365 1.62927L31.9326 2.08634L31.7099 1.87538C31.5576 1.72303 31.3466 1.57067 31.0771 1.38316C30.8075 1.20736 30.4676 1.03157 30.0809 0.890934C29.6824 0.750299 29.2488 0.679981 28.7449 0.679981C27.8542 0.679981 27.1393 0.844056 26.6119 1.19564C26.0845 1.55895 25.8267 1.96914 25.8267 2.47308C25.8267 2.95359 25.979 3.35205 26.2955 3.65676C26.6002 3.94975 27.0104 4.20759 27.5026 4.43026C27.9948 4.64121 28.5222 4.84045 29.0965 5.01624C30.3036 5.40299 31.1708 5.78973 31.7334 6.16476C32.5537 6.70386 32.9639 7.43048 32.9639 8.33289C32.9639 8.93059 32.7647 9.48141 32.3545 9.99708C31.956 10.5127 31.4052 10.9464 30.6903 11.2628C29.9871 11.5792 29.1551 11.7433 28.2292 11.7433C27.5026 11.7316 26.8932 11.6378 26.3658 11.462Z" fill="#292728"/>
<path d="M43.242 11.5322V6.23494H35.8118V11.5322H34.464V0.257935H35.8118V5.5552H43.242V0.257935H44.5898V11.5322H43.242Z" fill="#292728"/>
<path d="M48.9611 10.9461C48.0939 10.4187 47.3907 9.71556 46.8633 8.82487C46.3359 7.93418 46.0781 6.96145 46.0781 5.87153C46.0781 4.7816 46.3359 3.80888 46.8633 2.91818C47.3907 2.03921 48.0939 1.32432 48.9611 0.796934C49.8401 0.269551 50.7894 0 51.8207 0C52.8638 0 53.8131 0.269551 54.6803 0.796934C55.5593 1.32432 56.2507 2.02749 56.7781 2.91818C57.3055 3.80888 57.5751 4.7816 57.5751 5.87153C57.5751 6.96145 57.3055 7.93418 56.7781 8.82487C56.2507 9.70384 55.5593 10.4187 54.6803 10.9461C53.8131 11.4735 52.8638 11.7313 51.8207 11.7313C50.8011 11.7313 49.8401 11.4735 48.9611 10.9461ZM54.0709 10.3836C54.7155 9.93824 55.2194 9.31709 55.571 8.53188C55.9343 7.75839 56.1101 6.8677 56.1101 5.87153C56.1101 4.38314 55.7234 3.15258 54.9381 2.17985C54.1412 1.20712 53.1099 0.703177 51.8324 0.691457C51.0003 0.691457 50.2503 0.91413 49.6057 1.35948C48.9611 1.80482 48.4572 2.42596 48.0939 3.21117C47.7306 3.98467 47.5431 4.87536 47.5431 5.87153C47.5431 6.8677 47.7189 7.75839 48.0939 8.53188C48.4572 9.31709 48.9494 9.93824 49.594 10.3836C50.2269 10.8289 50.9769 11.0633 51.8324 11.0633C52.688 11.0633 53.4263 10.8406 54.0709 10.3836Z" fill="#292728"/>
<path d="M59.0751 11.5322V0.257935H64.0208C64.724 0.257935 65.3686 0.39857 65.9546 0.679841C66.5405 0.972831 66.9976 1.35958 67.3492 1.8518C67.7008 2.34403 67.8648 2.93001 67.8648 3.58631C67.8648 4.2426 67.7008 4.81686 67.3492 5.32081C66.9976 5.81303 66.5405 6.2115 65.9546 6.49277C65.3803 6.77404 64.7357 6.91468 64.0208 6.91468H60.4229V11.5322H59.0751ZM65.7202 5.50832C66.1772 5.0161 66.4116 4.38324 66.4116 3.58631C66.4116 2.78937 66.1772 2.14479 65.7202 1.65257C65.2631 1.17206 64.7005 0.925953 64.0325 0.925953H60.4346V6.22322H64.0325C64.6888 6.23494 65.2631 6.00055 65.7202 5.50832Z" fill="#292728"/>
</svg>
