<svg width="85" height="18" viewBox="0 0 85 18" fill="none" xmlns="http://www.w3.org/2000/svg">
<path d="M22.2295 4.38216L17.8925 0.79416C17.2025 0.212322 16.1182 -0.0785966 15.2311 0.0183764L2.61407 2.24875C1.23409 2.4427 0.248389 3.80032 0.445529 5.15794L1.92408 13.7885C2.12122 15.1462 3.5012 16.1159 4.88119 15.9219L17.4982 13.7885C18.4839 13.5946 19.2724 13.0128 19.7653 12.237L22.6238 7.38832C23.4124 6.32162 23.1167 5.15794 22.2295 4.38216ZM10.4011 13.0128L8.52828 11.1703L11.8797 7.77622L8.42971 4.47913L10.3025 2.63665L15.7239 7.77622L10.4011 13.0128Z" fill="#72BF44"/>
<path d="M33.5652 6.90333L32.5795 6.51544C31.5938 6.12755 30.5096 5.64269 30.5096 4.67296C30.5096 3.89717 31.101 3.21836 32.481 3.21836C33.9595 3.21836 35.2409 4.28506 35.5366 4.57598L35.8323 4.8669L36.2266 3.41231L36.0295 3.31533C35.3395 2.92744 33.9595 2.53955 32.5795 2.53955C30.3124 2.53955 28.8339 3.8002 28.8339 5.54571C28.8339 7.48517 30.6081 8.16398 31.8895 8.74582L32.7767 9.13371C34.1566 9.71555 35.0438 10.1034 35.0438 11.0732C35.0438 12.0429 34.1566 12.7217 32.7767 12.7217C31.4953 12.7217 30.3124 12.1399 29.4253 11.1701L29.1296 10.8792L28.6367 12.4308L28.7353 12.5278C29.6224 13.1096 31.101 13.4975 32.481 13.4975C34.9452 13.4975 36.6209 12.2368 36.6209 10.2974C36.6209 8.16398 34.8466 7.48517 33.5652 6.90333Z" fill="#231F20"/>
<path d="M51.3078 2.73315H49.6321V2.9271C49.5336 4.28472 48.9421 6.12721 48.055 8.45456L47.5622 9.81218L44.8022 2.73315H44.4079L41.648 9.90915L38.7894 2.73315H36.3252L40.6623 13.4972H41.1551L43.8165 6.5151L46.4779 13.4972H46.9707L48.8436 8.64851C49.8293 6.12721 50.4207 4.67261 51.2093 3.12105L51.3078 2.73315Z" fill="#231F20"/>
<path d="M56.335 2.53992C53.0822 2.53992 50.9136 4.7703 50.9136 8.06738C50.9136 11.2675 53.0822 13.4979 56.2364 13.4979C59.4892 13.4979 61.6578 11.2675 61.6578 7.9704C61.5592 4.67332 59.4892 2.53992 56.335 2.53992ZM56.2364 3.21873C58.0107 3.21873 59.1935 5.15819 59.1935 7.9704C59.1935 10.7826 58.0107 12.6251 56.2364 12.6251C54.4622 12.6251 53.2793 10.6856 53.2793 7.87343C53.2793 5.06121 54.4622 3.21873 56.2364 3.21873Z" fill="#231F20"/>
<path d="M67.7692 2.53992C64.5164 2.53992 62.3478 4.7703 62.3478 8.06738C62.3478 11.2675 64.5164 13.4979 67.6706 13.4979C70.9234 13.4979 73.092 11.2675 73.092 7.9704C72.9934 4.67332 70.9234 2.53992 67.7692 2.53992ZM67.6706 3.21873C69.4449 3.21873 70.6277 5.15819 70.6277 7.9704C70.6277 10.7826 69.4449 12.6251 67.6706 12.6251C65.8964 12.6251 64.7135 10.6856 64.7135 7.87343C64.7135 5.06121 65.8964 3.21873 67.6706 3.21873Z" fill="#231F20"/>
<path d="M79.6961 2.53992C78.5133 2.53992 77.5276 2.92781 76.5419 3.80057V2.53992H76.3448L74.2748 3.12176V17.4738H76.5419V12.6251C77.3305 13.11 78.119 13.4009 79.1047 13.4009C82.0618 13.4009 84.2304 10.9766 84.2304 7.77646C84.2304 4.7703 82.3575 2.53992 79.6961 2.53992ZM76.5419 10.9766V4.86727C77.3305 4.09148 78.2176 3.60662 79.1047 3.60662C80.7804 3.60662 81.8647 5.25516 81.8647 7.9704C81.8647 10.7826 80.6818 12.6251 78.9076 12.6251C77.9219 12.6251 76.9362 12.0433 76.5419 10.9766Z" fill="#231F20"/>
</svg>
