<svg width="81" height="17" viewBox="0 0 81 17" fill="none" xmlns="http://www.w3.org/2000/svg">
<path d="M19.9989 11.3983C19.8547 11.3983 19.7316 11.3432 19.6231 11.2379C19.5161 11.1294 19.4627 11.0047 19.4627 10.8621V10.3437H23.6245V6.65981H19.4627V6.12845C19.4627 5.98589 19.5145 5.86115 19.6231 5.75423C19.7316 5.64731 19.8547 5.59385 19.9989 5.59385H26.2165V1.79657H19.9843C18.5279 1.79657 17.5802 2.18537 16.7929 2.96297C16.0591 3.70655 15.6703 4.58621 15.6249 5.60681V11.3983C15.6703 12.4173 16.0591 13.297 16.7929 14.0389C17.5802 14.8165 18.5279 15.2037 19.636 15.2037H26.2181V11.3967H19.9989V11.3983Z" fill="#7CB339"/>
<path d="M44.9113 1.79495H41.1026V15.2053H44.9113C46.7597 15.2053 48.3408 14.5508 49.6514 13.2419C50.9603 11.9329 51.6164 10.3518 51.6164 8.50175C51.6164 6.65009 50.9603 5.07221 49.6514 3.76001C48.3392 2.44943 46.7597 1.79495 44.9113 1.79495ZM46.9476 10.5462C46.3855 11.1132 45.7067 11.3967 44.9113 11.3967V5.59223C45.7067 5.59223 46.3855 5.87573 46.9476 6.44273C47.5114 7.01135 47.7932 7.69823 47.7932 8.50175C47.7932 9.29717 47.5114 9.97757 46.9476 10.5462Z" fill="#1D41EF"/>
<path d="M59.4491 1.79495C57.5975 1.79495 56.018 2.45267 54.7074 3.76487C53.3968 5.08031 52.744 6.65657 52.744 8.50013C52.744 10.3502 53.3968 11.9297 54.7074 13.2403C56.018 14.5492 57.5975 15.2037 59.4491 15.2037C61.2992 15.2037 62.8819 14.5492 64.1957 13.2403C65.5096 11.9297 66.1673 10.3502 66.1673 8.50013C66.1673 6.65657 65.5096 5.08031 64.1957 3.76487C62.8819 2.45267 61.2992 1.79495 59.4491 1.79495ZM61.4936 10.5462C60.9266 11.1132 60.2429 11.3967 59.4491 11.3967C58.6537 11.3967 57.9701 11.1132 57.4031 10.5462C56.8361 9.97919 56.551 9.29069 56.551 8.48555C56.551 7.69175 56.8361 7.00973 57.4031 6.44111C57.9701 5.87411 58.6537 5.59061 59.4491 5.59061C60.2429 5.59061 60.925 5.87411 61.4936 6.44111C62.059 7.00973 62.3457 7.69175 62.3457 8.48555C62.3457 9.29069 62.059 9.97757 61.4936 10.5462Z" fill="#662395"/>
<path d="M78.7466 3.76487C77.4328 2.45267 75.85 1.79495 74 1.79495C72.1499 1.79495 70.5721 2.45267 69.2599 3.76487C67.9493 5.08031 67.2964 6.65657 67.2964 8.50013C67.2964 10.3502 67.9493 11.9297 69.2599 13.2403C70.5721 14.5492 72.1499 15.2037 74 15.2037C75.85 15.2037 77.4328 14.5492 78.7466 13.2403C80.0604 11.9297 80.7181 10.3502 80.7181 8.50013C80.7181 6.65819 80.0604 5.08031 78.7466 3.76487ZM76.046 10.5462C75.4774 11.1132 74.7954 11.3967 74.0016 11.3967C73.2062 11.3967 72.5242 11.1132 71.9572 10.5462C71.3902 9.97919 71.1034 9.29069 71.1034 8.48555C71.1034 7.69175 71.3902 7.00973 71.9572 6.44111C72.5225 5.87411 73.2062 5.59061 74.0016 5.59061C74.797 5.59061 75.479 5.87411 76.046 6.44111C76.6114 7.00973 76.8965 7.69175 76.8965 8.48555C76.8965 9.29069 76.6114 9.97757 76.046 10.5462Z" fill="#FF9600"/>
<path d="M39.11 1.79657H35.3014V7.56863L32.5393 2.94515H32.5377C32.1181 2.29715 31.3907 1.86785 30.5613 1.86785C29.2604 1.86785 28.2074 2.92247 28.2074 4.22171C28.2074 4.23143 28.2091 4.23953 28.2091 4.24763H28.2074V15.2426H32.0161V9.24857L34.9256 14.1183L34.9272 14.1167C35.3225 14.7679 36.0369 15.2053 36.855 15.2053C38.1008 15.2053 39.11 14.1961 39.11 12.9503C39.11 12.8968 39.1052 12.845 39.1019 12.7931H39.11V1.79657Z" fill="#00A1D1"/>
<path d="M11.11 1.79333L9.8982 5.66676L9.8901 5.6862L8.98776 8.40618L7.67394 4.45176C7.45038 3.87018 7.13124 3.38094 6.72138 2.97594C5.94216 2.19024 5.00418 1.79658 3.90582 1.79658H0.20898L1.04976 5.59224H3.60936C3.68064 5.59224 3.8313 5.57928 3.94632 5.66838C4.06134 5.75748 4.1229 5.94216 4.1229 5.94378L6.66144 13.4525H6.66306C6.95628 14.465 7.88778 15.2053 8.99424 15.2053C10.0764 15.2053 10.9917 14.4974 11.306 13.5189L13.5772 6.74244L15.0271 1.79333H11.11Z" fill="#DC0079"/>
</svg>
